<?xml version="1.0" encoding="UTF-8" standalone="no"?>
<svg
        xmlns="http://www.w3.org/2000/svg"
        width="127.18718mm"
        height="29.347376mm"
        viewBox="0 0 127.18718 29.347376"
        version="1.1"
        id="svg8">
    <defs
            id="defs2">
        <style
                id="style833">.cls-1{fill:#001f52;}.cls-2{fill:#12b62c;}</style>
    </defs>
    <g
            id="layer1"
            transform="translate(-27.120696,-156.9275)">
        <g
                id="Livello_1-2"
                transform="matrix(0.26458333,0,0,0.26458333,27.129617,156.87148)">
            <path
                    class="cls-1"
                    d="m 160.2,83.21 a 1.81,1.81 0 0 1 -1.62,-0.92 L 143.32,59.85 h -0.12 l -15.38,22.44 a 1.81,1.81 0 0 1 -1.62,0.92 h -4.63 a 0.76,0.76 0 0 1 -0.75,-0.34 0.88,0.88 0 0 1 0.06,-0.81 l 18.85,-27.76 -17,-25.1 a 0.88,0.88 0 0 1 -0.06,-0.81 0.77,0.77 0 0 1 0.75,-0.35 h 4.75 a 1.82,1.82 0 0 1 1.62,0.93 l 13.41,19.89 h 0.12 L 156.85,29 a 1.8,1.8 0 0 1 1.62,-0.93 h 4.62 a 0.77,0.77 0 0 1 0.76,0.35 0.91,0.91 0 0 1 -0.06,0.81 l -17.12,25.07 19,27.76 a 0.91,0.91 0 0 1 0.06,0.81 0.77,0.77 0 0 1 -0.76,0.34 z"
                    id="path839" />
            <path
                    class="cls-1"
                    d="m 201.14,83.56 q -7.86,0 -11.1,-3.36 -3.24,-3.36 -3.24,-11.56 V 34.29 a 0.61,0.61 0 0 0 -0.69,-0.69 h -5.78 a 1,1 0 0 1 -1.16,-1.16 V 29.2 a 1,1 0 0 1 1.16,-1.2 h 5.78 a 0.61,0.61 0 0 0 0.69,-0.69 V 14.74 a 1,1 0 0 1 1.2,-1.16 h 3.93 a 1,1 0 0 1 1.16,1.16 v 12.61 a 0.61,0.61 0 0 0 0.69,0.69 h 10.41 a 1,1 0 0 1 1.16,1.16 v 3.24 a 1,1 0 0 1 -1.16,1.16 h -10.45 a 0.61,0.61 0 0 0 -0.69,0.69 v 34 q 0,5.55 2,7.41 c 1.35,1.23 3.65,1.85 6.88,1.85 h 2.2 a 1,1 0 0 1 1.16,1.15 v 3.7 a 1,1 0 0 1 -1.16,1.16 z"
                    id="path841" />
            <path
                    class="cls-1"
                    d="m 227.05,83.21 a 1,1 0 0 1 -1.16,-1.15 V 29.2 A 1,1 0 0 1 227.05,28 H 231 a 1,1 0 0 1 1.16,1.16 v 7.06 h 0.11 a 15.14,15.14 0 0 1 5.27,-6.71 15.83,15.83 0 0 1 9.54,-2.66 18.12,18.12 0 0 1 6.24,1 14.87,14.87 0 0 1 4.86,2.77 c 0.62,0.39 0.69,0.89 0.23,1.51 l -2.31,3.24 c -0.39,0.54 -1,0.61 -1.74,0.23 a 20.39,20.39 0 0 0 -4,-2 14,14 0 0 0 -4.75,-0.75 11.53,11.53 0 0 0 -10.35,5.5 18.49,18.49 0 0 0 -2.31,5.89 33.68,33.68 0 0 0 -0.75,7.23 v 30.59 a 1,1 0 0 1 -1.2,1.15 z"
                    id="path843" />
            <path
                    class="cls-1"
                    d="m 295.29,84.37 q -8.1,0 -13.46,-3.7 A 20,20 0 0 1 274.21,69.8 32.64,32.64 0 0 1 273,64.07 a 70.59,70.59 0 0 1 -0.4,-8.5 72.44,72.44 0 0 1 0.4,-8.5 32.38,32.38 0 0 1 1.21,-5.84 20.32,20.32 0 0 1 7.62,-10.64 21.77,21.77 0 0 1 12.8,-3.7 22,22 0 0 1 12.86,3.7 20.13,20.13 0 0 1 7.67,10.64 26.15,26.15 0 0 1 1.29,5.77 86.54,86.54 0 0 1 0.35,8.91 c 0,0.77 -0.43,1.15 -1.27,1.15 h -36 c -0.47,0 -0.7,0.28 -0.7,0.81 a 44,44 0 0 0 0.29,5.61 26.71,26.71 0 0 0 0.88,4.12 15.46,15.46 0 0 0 6,8.15 17.23,17.23 0 0 0 9.65,2.61 19.19,19.19 0 0 0 9.2,-2 20.06,20.06 0 0 0 6.19,-5 1,1 0 0 1 1.61,-0.23 l 2.67,2.43 a 1.07,1.07 0 0 1 0.11,1.62 22.82,22.82 0 0 1 -8.1,6.65 26.14,26.14 0 0 1 -12.04,2.54 z m 14.57,-32.73 a 0.61,0.61 0 0 0 0.69,-0.69 36,36 0 0 0 -0.23,-4.43 16.16,16.16 0 0 0 -0.81,-3.5 14,14 0 0 0 -5.46,-7.76 16.37,16.37 0 0 0 -9.4,-2.59 16.18,16.18 0 0 0 -9.29,2.59 14,14 0 0 0 -5.45,7.74 16.15,16.15 0 0 0 -0.82,3.5 38.08,38.08 0 0 0 -0.23,4.43 0.61,0.61 0 0 0 0.7,0.69 z"
                    id="path845" />
            <path
                    class="cls-1"
                    d="m 357.28,32.67 a 25.88,25.88 0 0 0 -8.27,1.1 18.32,18.32 0 0 0 -5.61,3.06 c -0.69,0.54 -1.27,0.51 -1.74,-0.11 l -2,-2.89 a 1.09,1.09 0 0 1 0.34,-1.62 21.18,21.18 0 0 1 7.35,-3.93 33.52,33.52 0 0 1 10.23,-1.39 39.62,39.62 0 0 1 9.14,0.92 14.26,14.26 0 0 1 6.28,3.13 13,13 0 0 1 3.65,5.66 27.1,27.1 0 0 1 1.17,8.56 v 36.9 a 1,1 0 0 1 -1.17,1.15 h -3.78 a 1,1 0 0 1 -1.18,-1.15 v -5.79 h -0.11 a 13,13 0 0 1 -6,5.79 23.65,23.65 0 0 1 -11.16,2.31 q -8.33,0 -13.41,-4.12 Q 335.93,76.13 336,68 q 0,-8.36 5.37,-12.36 5.37,-4 15.56,-4 h 14 a 0.61,0.61 0 0 0 0.7,-0.69 v -5.63 a 22.47,22.47 0 0 0 -0.64,-5.75 8,8 0 0 0 -2.31,-4 10,10 0 0 0 -4.45,-2.24 29.39,29.39 0 0 0 -6.95,-0.66 z m -1.44,45.92 q 7.14,0 11.46,-3.36 a 10.82,10.82 0 0 0 4.32,-9 v -8.46 a 0.62,0.62 0 0 0 -0.7,-0.7 h -13.13 q -8.3,0 -11.92,2.66 c -2.42,1.78 -3.63,4.51 -3.63,8.22 q 0,5.2 3.52,7.92 3.52,2.72 10.08,2.72 z"
                    id="path847" />
            <path
                    class="cls-1"
                    d="m 475.59,83.21 a 1,1 0 0 1 -1.15,-1.15 V 49.44 q 0,-16.53 -14.58,-16.54 A 14.88,14.88 0 0 0 449.22,37 q -4.28,4 -4.28,11.33 v 33.73 a 1,1 0 0 1 -1.15,1.15 h -3.94 A 1,1 0 0 1 438.7,82.06 V 49.44 q 0,-16.53 -14.46,-16.54 a 15.09,15.09 0 0 0 -10.7,4.1 q -4.34,4 -4.33,11.33 v 33.73 a 1,1 0 0 1 -1.16,1.15 h -3.93 A 1,1 0 0 1 403,82.06 V 29.2 a 1,1 0 0 1 1.12,-1.2 h 3.93 a 1,1 0 0 1 1.16,1.16 v 6.59 h 0.11 a 15.8,15.8 0 0 1 6.25,-6.47 19.62,19.62 0 0 1 10.06,-2.43 q 12.84,0 17.12,10.29 h 0.11 a 18.15,18.15 0 0 1 6.88,-7.57 21.27,21.27 0 0 1 11.26,-2.68 q 9.36,0 14.51,5.43 5.15,5.43 5.15,15.62 v 34.12 a 1,1 0 0 1 -1.16,1.15 z"
                    id="path849" />
            <path
                    class="cls-1"
                    d="m 22.05,99.33 a 7,7 0 0 0 9.89,9.9 l 23.71,-23.71 -0.27,0.07 c -0.47,0.14 -0.94,0.26 -1.42,0.38 l -0.85,0.21 c -0.54,0.11 -1.09,0.2 -1.64,0.29 -0.23,0 -0.44,0.09 -0.67,0.12 -0.78,0.11 -1.56,0.19 -2.35,0.24 h -0.14 c -0.73,0 -1.47,0.06 -2.21,0 -0.25,0 -0.51,0 -0.77,0 -0.53,0 -1,0 -1.58,-0.08 l -0.93,-0.11 c -0.48,-0.06 -1,-0.12 -1.43,-0.2 -0.43,-0.08 -0.66,-0.12 -1,-0.19 -0.34,-0.07 -0.9,-0.18 -1.34,-0.29 -0.44,-0.11 -0.68,-0.18 -1,-0.28 -0.32,-0.1 -0.87,-0.25 -1.3,-0.39 -0.17,0 -0.34,-0.09 -0.5,-0.15 z"
                    id="path851" />
            <path
                    class="cls-1"
                    d="m 56.13,46 a 13.54,13.54 0 0 1 4,10.08 L 71.74,44.46 A 27.6,27.6 0 0 0 56.6,30 27.6,27.6 0 0 0 27,36.13 l -25,25 A 7.0039364,7.0039364 0 0 0 11.94,71 l 5,-5 19.96,-20 a 13.62,13.62 0 0 1 19.23,0 z"
                    id="path853" />
            <path
                    class="cls-2"
                    d="M 71,11.94 A 7,7 0 0 0 61.11,2.05 l -23.7,23.7 0.28,-0.08 c 0.44,-0.13 0.89,-0.24 1.34,-0.35 l 0.93,-0.23 c 0.5,-0.11 1,-0.19 1.51,-0.27 l 0.8,-0.14 c 0.77,-0.1 1.54,-0.18 2.32,-0.23 H 45 c 0.65,0 1.3,-0.06 2,-0.05 h 0.86 c 0.5,0 1,0 1.5,0.08 l 1,0.12 c 0.46,0.05 0.92,0.11 1.38,0.19 0.46,0.08 0.68,0.12 1,0.19 0.32,0.07 0.88,0.18 1.32,0.29 l 1,0.28 c 0.43,0.12 0.85,0.25 1.28,0.39 0.17,0.05 0.34,0.09 0.51,0.15 z"
                    id="path855" />
            <path
                    class="cls-2"
                    d="m 36.9,65.25 a 13.57,13.57 0 0 1 -4,-10.08 L 21.29,66.81 A 27.59,27.59 0 0 0 66,75.14 l 25,-25 a 7,7 0 0 0 -9.89,-9.89 l -5,5.05 -19.98,19.95 a 13.62,13.62 0 0 1 -19.23,0 z"
                    id="path857" />
        </g>
    </g>
</svg>
